<?xml version="1.0" encoding="UTF-8"?>
<svg version="1.1" viewBox="0 0 1080 1920" xmlns="http://www.w3.org/2000/svg">
 <g transform="translate(0 867.64)">
  <g fill="none" stroke="#000" stroke-width="4.2">
   <circle cx="540" cy="-294.53" r="154.42"/>
   <path d="m450.36-382.88a88.999 88.999 0 0 1 88.999 88.999 88.999 88.999 0 0 1 -88.999 88.999 88.999 88.999 0 0 1 -88.998 -88.999 88.999 88.999 0 0 1 88.998 -88.999z"/>
   <path d="m629.64-382.88a88.999 88.999 0 0 0 -88.999 88.999 88.999 88.999 0 0 0 88.999 88.999 88.999 88.999 0 0 0 88.999 -88.999 88.999 88.999 0 0 0 -88.999 -88.999z"/>
   <path d="m661.9-260.75a88.999 88.999 0 0 0 -121.57 -32.576 88.999 88.999 0 0 0 -32.576 121.57 88.999 88.999 0 0 0 121.57 32.576 88.999 88.999 0 0 0 32.576 -121.57z"/>
   <path d="m572.25-416.01a88.999 88.999 0 0 1 -32.576 121.57 88.999 88.999 0 0 1 -121.57 -32.576 88.999 88.999 0 0 1 32.576 -121.57 88.999 88.999 0 0 1 121.57 32.576z"/>
   <path d="m629-294.53a88.999 88.999 0 0 0 -88.999 -88.999 88.999 88.999 0 0 0 -88.999 88.999 88.999 88.999 0 0 0 88.999 88.999 88.999 88.999 0 0 0 88.999 -88.999z"/>
   <path d="m718.62-294.53a178.62 178.62 0 0 1 -178.62 178.62 178.62 178.62 0 0 1 -178.62 -178.62 178.62 178.62 0 0 1 178.62 -178.62 178.62 178.62 0 0 1 178.62 178.62z"/>
   <path d="m360.71-294.62h358.57-358.57z"/>
   <path d="m540-474.86v358.57-358.57z"/>
   <path d="m418.1-260.75a88.999 88.999 0 0 1 121.57 -32.576 88.999 88.999 0 0 1 32.576 121.57 88.999 88.999 0 0 1 -121.57 32.576 88.999 88.999 0 0 1 -32.576 -121.57z"/>
   <path d="m507.75-416.01a88.999 88.999 0 0 0 32.576 121.57 88.999 88.999 0 0 0 121.57 -32.576 88.999 88.999 0 0 0 -32.576 -121.57 88.999 88.999 0 0 0 -121.57 32.576z"/>
   <path d="m384.78-384.25 310.53 179.29-310.53-179.29z"/>
   <path d="m630.17-450.7-179.29 310.53 179.29-310.53z"/>
   <path d="m450.44-449.86 179.29 310.53-179.29-310.53z"/>
   <path d="m696.18-384.72-310.53 179.29 310.53-179.29z"/>
  </g>
 </g>
</svg>
